<svg xmlns="http://www.w3.org/2000/svg" viewBox="0 0 1024 1024"><path d="M896 256a160 160 0 1 0-71.808 133.44l81.152 81.216 45.248-45.312-81.152-81.152C886.208 318.912 896 288.576 896 256zM160 192H512V128H160A96 96 0 0 0 64 224v576A96 96 0 0 0 160 896h704a96 96 0 0 0 96-96V512h-64v288a31.872 31.872 0 0 1-20.864 29.888L497.152 451.84a160 160 0 0 0-226.304 0L128 594.752V224a32 32 0 0 1 32-32zM640 256a96 96 0 1 1 192 0 96 96 0 0 1-192 0zM316.16 497.152a96 96 0 0 1 135.68 0L786.816 832H160a32 32 0 0 1-32-32v-114.752l188.16-188.16z"></path></svg>
