<svg xmlns="http://www.w3.org/2000/svg" viewBox="0 0 1024 1024"><path d="M501.632 697.408c-71.296 10.048-114.56 7.424-129.92-7.936-15.296-15.36-17.92-58.624-7.872-129.92 10.304-73.216 29.376-123.712 57.088-151.488 27.648-27.584 60.16-43.328 97.664-47.104l270.72-234.368c20.416-17.728 44.16-26.048 71.168-25.088 27.072 0.96 50.112 11.008 69.248 30.144 19.072 19.072 29.12 42.112 30.144 69.056 1.024 26.88-7.232 50.624-24.832 71.104l-235.072 273.728a157.248 157.248 0 0 1-46.848 94.72c-27.712 27.776-78.272 46.848-151.488 57.152z m187.2-237.12l197.696-230.144a37.824 37.824 0 0 0 9.408-27.008 37.888 37.888 0 0 0-11.456-26.24 37.888 37.888 0 0 0-26.24-11.456 37.888 37.888 0 0 0-27.072 9.6L602.432 372.992c18.432 8 35.328 19.648 50.688 35.072 15.808 15.744 27.712 33.152 35.712 52.16zM307.904 229.632a435.584 435.584 0 0 1 138.368 0.768l-10.048 63.232a372.096 372.096 0 0 0-118.08-0.832l-10.24-63.168zM101.76 359.232l1.536-2.432c24.96-40.128 59.712-71.68 104.192-94.72l29.44 56.896a198.592 198.592 0 0 0-80.448 73.472l-54.72-33.28z m506.24 94.08a96.512 96.512 0 0 0-70.912-29.312c-27.648 0-51.2 9.792-70.784 29.376-17.728 17.664-30.72 56.064-39.04 115.136a475.392 475.392 0 0 0-4.992 70.464l6.272 0.064c19.584-0.064 40.96-1.728 64.256-4.992 59.072-8.32 97.472-21.376 115.2-39.04 19.52-19.52 29.312-43.136 29.312-70.848 0-27.648-9.792-51.2-29.376-70.784zM80.768 602.048c-15.424-48.256-20.288-95.04-14.528-140.288l63.488 8.064c-4.544 35.84-0.576 73.472 12.032 112.704l-60.992 19.52z m796.608-23.808c15.808 48.128 21.056 94.784 15.744 140.096l-63.552-7.424c4.16-35.968-0.128-73.536-12.992-112.64l60.8-20.032zM211.456 801.92a523.264 523.264 0 0 1-86.592-105.408l54.4-33.664c20.48 33.088 45.888 64 76.16 92.544l-43.968 46.528z m647.424 19.328l-2.944 4.928a261.76 261.76 0 0 1-106.688 95.936l-28.864-57.152a198.912 198.912 0 0 0 83.456-76.288l55.04 32.64z m-447.68 104.576a584.96 584.96 0 0 1-120-60.8l35.2-53.504c3.84 2.56 7.616 4.928 11.392 7.36 30.592 19.008 62.4 34.624 95.552 46.912l-22.144 60.032z m237.184 27.904a438.08 438.08 0 0 1-138.24-1.6l10.368-63.168a374.592 374.592 0 0 0 118.144 1.536l9.728 63.232z"></path></svg>
