<svg xmlns="http://www.w3.org/2000/svg" viewBox="0 0 1024 1024"><path d="M768 64a32 32 0 0 1 25.6 51.2L705.28 233.088l27.968 252.096 137.088 27.456A32 32 0 0 1 896 544v128a32 32 0 0 1-32 32h-320v320h-64v-320h-320a32 32 0 0 1-32-32v-128a32 32 0 0 1 25.728-31.36l137.024-27.456 27.968-252.16L230.4 115.2A32 32 0 0 1 256 64h512zM377.6 204.8c4.928 6.528 7.104 14.72 6.208 22.784l-32 288a32 32 0 0 1-25.6 27.776L192 570.24V640h640V570.24l-134.272-26.88a32 32 0 0 1-25.6-27.776l-32-288A32.064 32.064 0 0 1 646.4 204.8L704 128H320l57.6 76.8z"></path></svg>
